<?xml version="1.0" standalone="no"?>
<svg xmlns:xlink="http://www.w3.org/1999/xlink" id="wave" style="transform:rotate(180deg); transition: 0.3s" viewBox="0 0 1440 350" version="1.1" xmlns="http://www.w3.org/2000/svg"><defs><linearGradient id="sw-gradient-0" x1="0" x2="0" y1="1" y2="0"><stop stop-color="rgba(203, 241, 245, 1)" offset="0%"/><stop stop-color="rgba(159.774, 232.602, 232.602, 1)" offset="100%"/></linearGradient></defs><path style="transform:translate(0, 0px); opacity:1" fill="url(#sw-gradient-0)" d="M0,210L60,186.7C120,163,240,117,360,134.2C480,152,600,233,720,233.3C840,233,960,152,1080,110.8C1200,70,1320,70,1440,75.8C1560,82,1680,93,1800,99.2C1920,105,2040,105,2160,134.2C2280,163,2400,222,2520,239.2C2640,257,2760,233,2880,227.5C3000,222,3120,233,3240,233.3C3360,233,3480,222,3600,186.7C3720,152,3840,93,3960,58.3C4080,23,4200,12,4320,40.8C4440,70,4560,140,4680,145.8C4800,152,4920,93,5040,58.3C5160,23,5280,12,5400,46.7C5520,82,5640,163,5760,186.7C5880,210,6000,175,6120,186.7C6240,198,6360,257,6480,256.7C6600,257,6720,198,6840,180.8C6960,163,7080,187,7200,198.3C7320,210,7440,210,7560,227.5C7680,245,7800,280,7920,250.8C8040,222,8160,128,8280,87.5C8400,47,8520,58,8580,64.2L8640,70L8640,350L8580,350C8520,350,8400,350,8280,350C8160,350,8040,350,7920,350C7800,350,7680,350,7560,350C7440,350,7320,350,7200,350C7080,350,6960,350,6840,350C6720,350,6600,350,6480,350C6360,350,6240,350,6120,350C6000,350,5880,350,5760,350C5640,350,5520,350,5400,350C5280,350,5160,350,5040,350C4920,350,4800,350,4680,350C4560,350,4440,350,4320,350C4200,350,4080,350,3960,350C3840,350,3720,350,3600,350C3480,350,3360,350,3240,350C3120,350,3000,350,2880,350C2760,350,2640,350,2520,350C2400,350,2280,350,2160,350C2040,350,1920,350,1800,350C1680,350,1560,350,1440,350C1320,350,1200,350,1080,350C960,350,840,350,720,350C600,350,480,350,360,350C240,350,120,350,60,350L0,350Z"/><defs><linearGradient id="sw-gradient-1" x1="0" x2="0" y1="1" y2="0"><stop stop-color="rgba(227, 253, 253, 1)" offset="0%"/><stop stop-color="rgba(190.999, 253.093, 253.093, 1)" offset="100%"/></linearGradient></defs><path style="transform:translate(0, 50px); opacity:0.9" fill="url(#sw-gradient-1)" d="M0,315L60,291.7C120,268,240,222,360,180.8C480,140,600,105,720,116.7C840,128,960,187,1080,186.7C1200,187,1320,128,1440,105C1560,82,1680,93,1800,81.7C1920,70,2040,35,2160,17.5C2280,0,2400,0,2520,35C2640,70,2760,140,2880,186.7C3000,233,3120,257,3240,256.7C3360,257,3480,233,3600,204.2C3720,175,3840,140,3960,145.8C4080,152,4200,198,4320,233.3C4440,268,4560,292,4680,262.5C4800,233,4920,152,5040,151.7C5160,152,5280,233,5400,274.2C5520,315,5640,315,5760,315C5880,315,6000,315,6120,303.3C6240,292,6360,268,6480,227.5C6600,187,6720,128,6840,122.5C6960,117,7080,163,7200,175C7320,187,7440,163,7560,180.8C7680,198,7800,257,7920,274.2C8040,292,8160,268,8280,227.5C8400,187,8520,128,8580,99.2L8640,70L8640,350L8580,350C8520,350,8400,350,8280,350C8160,350,8040,350,7920,350C7800,350,7680,350,7560,350C7440,350,7320,350,7200,350C7080,350,6960,350,6840,350C6720,350,6600,350,6480,350C6360,350,6240,350,6120,350C6000,350,5880,350,5760,350C5640,350,5520,350,5400,350C5280,350,5160,350,5040,350C4920,350,4800,350,4680,350C4560,350,4440,350,4320,350C4200,350,4080,350,3960,350C3840,350,3720,350,3600,350C3480,350,3360,350,3240,350C3120,350,3000,350,2880,350C2760,350,2640,350,2520,350C2400,350,2280,350,2160,350C2040,350,1920,350,1800,350C1680,350,1560,350,1440,350C1320,350,1200,350,1080,350C960,350,840,350,720,350C600,350,480,350,360,350C240,350,120,350,60,350L0,350Z"/></svg>